<svg width="48.000000" height="48.000000" viewBox="0 0 48 48" fill="none" xmlns="http://www.w3.org/2000/svg" xmlns:xlink="http://www.w3.org/1999/xlink">
	<desc>
			Created with Pixso.
	</desc>
	<defs>
		<clipPath id="clip99_2943">
			<rect id="Icon / Line / Trash" width="20.000000" height="20.000000" transform="translate(14.000000 14.000000)" fill="white" fill-opacity="0"/>
		</clipPath>
	</defs>
	<rect id="Icon / Line / Trash" width="20.000000" height="20.000000" transform="translate(14.000000 14.000000)" fill="#000000" fill-opacity="0"/>
	<g clip-path="url(#clip99_2943)">
		<path id="Vector" d="M29.7324 21.2656L29.8154 21.2667C30.1228 21.2922 30.3586 21.5476 30.375 21.855L30.3669 22.0264L30.105 25.2357L29.8301 28.3678C29.772 28.993 29.7197 29.5204 29.6748 29.9355C29.5188 31.3823 28.5796 32.2769 27.1638 32.3033C24.9578 32.3441 22.8374 32.3438 20.7781 32.2992C19.4033 32.2704 18.478 31.366 18.3247 29.9414L18.2185 28.8917L18.0332 26.8558L17.8435 24.6217L17.6265 21.9398C17.5994 21.5958 17.8496 21.2944 18.1851 21.2667C18.4927 21.2415 18.7651 21.4548 18.8293 21.7556L18.8542 22.0013L19.0581 24.5155L19.2805 27.1216C19.3804 28.2496 19.467 29.1626 19.5361 29.804C19.6235 30.6158 20.051 31.0336 20.8035 31.0494C22.8464 31.0936 24.9512 31.094 27.1418 31.0536C27.9397 31.0386 28.374 30.6249 28.4634 29.7977L28.5688 28.7538C28.5999 28.432 28.6328 28.0769 28.6677 27.691L28.8906 25.1282L29.1589 21.8396C29.1836 21.5242 29.4326 21.2823 29.7324 21.2656ZM17.1094 19.8242C16.7729 19.8242 16.5 19.5444 16.5 19.1992C16.5 18.8828 16.7292 18.6213 17.0269 18.58L17.1094 18.5742L19.7646 18.5742C20.0803 18.5742 20.3564 18.366 20.4553 18.066L20.4795 17.9734L20.6858 16.921C20.8677 16.2241 21.4578 15.7279 22.1492 15.6719L22.28 15.6666L25.72 15.6666C26.4229 15.6666 27.0437 16.1218 27.2825 16.8253L27.3228 16.9601L27.5203 17.9731C27.5823 18.2905 27.8354 18.5276 28.1418 18.5681L28.2351 18.5742L30.8906 18.5742C31.2271 18.5742 31.5 18.8541 31.5 19.1992C31.5 19.5156 31.2708 19.7772 30.9731 19.8186L30.8906 19.8242L17.1094 19.8242ZM25.72 16.9166L22.28 16.9166C22.1089 16.9166 21.957 17.0193 21.8938 17.1483L21.8723 17.205L21.6748 18.2186C21.6506 18.3423 21.6157 18.4614 21.571 18.5751L26.429 18.5752C26.4011 18.5044 26.377 18.4313 26.3569 18.3563L26.325 18.2184L26.1362 17.244C26.0923 17.0748 25.9561 16.9512 25.7917 16.9229L25.72 16.9166Z" fill="#FF7CA3" fill-opacity="1.000000" fill-rule="nonzero"/>
	</g>
	<rect id="Type=Line, State=Icon Default, Icon=True" rx="4.000000" width="47.000000" height="47.000000" transform="translate(0.500000 0.500000)" stroke="#FF7CA3" stroke-opacity="1.000000" stroke-width="1.000000"/>
</svg>
