<svg width="24.000000" height="24.000000" viewBox="0 0 24 24" fill="none" xmlns="http://www.w3.org/2000/svg" xmlns:xlink="http://www.w3.org/1999/xlink">
	<desc>
			Created with Pixso.
	</desc>
	<defs>
		<clipPath id="clip122_1513">
			<rect id="Icon / Line / Paypal" width="24.000000" height="24.000000" fill="white" fill-opacity="0"/>
		</clipPath>
	</defs>
	<rect id="Icon / Line / Paypal" width="24.000000" height="24.000000" fill="#FFFFFF" fill-opacity="0"/>
	<g clip-path="url(#clip122_1513)">
		<path id="Vector" d="M12.5 13C15 13 17.5 10.5 17.5 8C17.5 5 15.6001 3 12.5 3L7 3C6.5 3 6 3.5 6 4L4 18C4 18.5 4.5 19 5 19L7.80005 19L9 14C9.1001 13.4 9.3999 13 10 13L12.5 13ZM17.5 7.19995C19.2 8.19995 20 10 20 12C20 14.5 17.5 16.5 15 16.5L12.3999 16.5L11.8 20.1C11.7532 20.3292 11.6277 20.5349 11.4448 20.681C11.2622 20.8273 11.0339 20.9047 10.8 20.9L8.1001 20.9C8.0249 20.9015 7.95068 20.8861 7.88232 20.855C7.81421 20.8239 7.75366 20.7778 7.70581 20.7202C7.65771 20.6626 7.62329 20.5948 7.60498 20.5221C7.58667 20.4495 7.58496 20.3735 7.6001 20.3L7.80005 18.9" stroke="#ABBBC2" stroke-opacity="1.000000" stroke-width="1.500000" stroke-linejoin="round" stroke-linecap="round"/>
	</g>
</svg>
