<svg width="56.000000" height="56.000000" viewBox="0 0 56 56" fill="none" xmlns="http://www.w3.org/2000/svg" xmlns:xlink="http://www.w3.org/1999/xlink">
	<desc>
			Created with Pixso.
	</desc>
	<defs>
		<clipPath id="clip52_3799">
			<rect id="Icon / Line / Message" width="24.000000" height="24.000000" transform="translate(16.000000 16.000000)" fill="white" fill-opacity="0"/>
		</clipPath>
	</defs>
	<rect id="Frame 65" rx="8.000000" width="56.000000" height="56.000000" fill="#1F1D2B" fill-opacity="1.000000"/>
	<rect id="Icon / Line / Message" width="24.000000" height="24.000000" transform="translate(16.000000 16.000000)" fill="#000000" fill-opacity="0"/>
	<g clip-path="url(#clip52_3799)">
		<path id="Vector" d="M32.3212 18.7581C33.8351 18.7751 35.2761 19.416 36.3085 20.5315C37.3408 21.647 37.8745 23.1398 37.7865 24.6171L37.7852 30.854C37.8745 32.3763 37.3408 33.8691 36.3085 34.9846C35.2761 36.1001 33.8351 36.741 32.3127 36.7581L23.2521 36.7581C20.0825 36.7581 17.7959 34.1965 17.7959 30.899L17.7959 24.6171C17.7959 21.3196 20.0825 18.7581 23.2521 18.7581L32.3212 18.7581ZM32.3043 20.2864L23.2521 20.2864C20.9587 20.2864 19.3134 22.1296 19.3134 24.6171L19.3134 30.899C19.3134 33.3865 20.9587 35.2297 23.2521 35.2297L32.3043 35.2297C33.4032 35.2173 34.4491 34.7522 35.1985 33.9424C35.9479 33.1327 36.3352 32.0492 36.269 30.899L36.2704 24.5719C36.3352 23.4669 35.9479 22.3834 35.1985 21.5737C34.4491 20.7639 33.4032 20.2988 32.3043 20.2864ZM33.8199 24.3965C34.058 24.6959 34.0359 25.1207 33.7841 25.3936L33.7017 25.4706L29.5947 28.7817C28.5973 29.5648 27.219 29.6039 26.179 28.8956L26.0176 28.7776L21.8832 25.4725C21.5549 25.2102 21.5 24.7295 21.7605 24.3989C21.9973 24.0984 22.4132 24.0254 22.7335 24.2117L22.8264 24.2754L26.9557 27.5762C27.4187 27.9397 28.0533 27.9677 28.5367 27.6649L28.6542 27.5823L32.7534 24.2773C33.0806 24.0135 33.5581 24.0669 33.8199 24.3965Z" fill="#EA7C69" fill-opacity="1.000000" fill-rule="nonzero"/>
	</g>
</svg>
