<svg width="56.000000" height="56.000000" viewBox="0 0 56 56" fill="none" xmlns="http://www.w3.org/2000/svg" xmlns:xlink="http://www.w3.org/1999/xlink">
	<desc>
			Created with Pixso.
	</desc>
	<defs>
		<clipPath id="clip52_3779">
			<rect id="Icon / Line / Discount" width="24.000000" height="24.000000" transform="translate(16.000000 16.000000)" fill="white" fill-opacity="0"/>
		</clipPath>
	</defs>
	<rect id="Frame 65" rx="8.000000" width="56.000000" height="56.000000" fill="#1F1D2B" fill-opacity="1.000000"/>
	<rect id="Icon / Line / Discount" width="24.000000" height="24.000000" transform="translate(16.000000 16.000000)" fill="#000000" fill-opacity="0"/>
	<g clip-path="url(#clip52_3779)">
		<path id="Vector" d="M29.9512 18.7164L30.1334 18.8865L30.8522 19.6052C31.0991 19.851 31.4229 20.0024 31.7673 20.0365L31.9161 20.0438L32.9441 20.0438C34.548 20.0438 35.8594 21.298 35.951 22.8788L35.9561 23.0558L35.9561 24.0828C35.9561 24.4326 36.0767 24.7688 36.2943 25.0363L36.3934 25.1465L37.1122 25.8652C38.2438 26.9917 38.2943 28.793 37.2577 29.98L37.1224 30.1251L36.394 30.8535C36.149 31.099 35.9976 31.4231 35.9634 31.7672L35.9561 31.9158L35.9561 32.9448C35.9561 34.5485 34.702 35.8591 33.1211 35.9507L32.9441 35.9558L31.9161 35.9558C31.5675 35.9558 31.2308 36.0769 30.9634 36.295L30.853 36.3945L30.1353 37.1113C29.01 38.2441 27.2074 38.2944 26.0199 37.2574L25.8657 37.1132L25.1487 36.396C24.9003 36.1494 24.5758 35.9973 24.2323 35.9631L24.0841 35.9558L23.0551 35.9558C21.452 35.9558 20.1409 34.7023 20.0492 33.1217L20.0441 32.9448L20.0441 31.9158C20.0441 31.5677 19.9229 31.2307 19.7047 30.9637L19.6053 30.8538L18.8883 30.1356C17.7557 29.0094 17.7054 27.2068 18.7424 26.0204L18.8778 25.8755L19.6039 25.1483C19.8508 24.8997 20.0027 24.5758 20.0367 24.2314L20.0441 24.0828L20.0441 23.0558L20.0492 22.8789C20.1375 21.3567 21.3566 20.1371 22.8783 20.049L23.0551 20.0438L24.0841 20.0438C24.4326 20.0438 24.7694 19.9229 25.0364 19.7057L25.1464 19.6068L25.8646 18.8877C26.991 17.7562 28.7933 17.7064 29.9512 18.7164ZM27.0415 19.8425L26.9268 19.9468L26.2056 20.6689C25.6884 21.1826 25.0042 21.4896 24.282 21.5372L24.0841 21.5438L23.0551 21.5438C22.2676 21.5438 21.6199 22.1479 21.5503 22.9182L21.5441 23.0558L21.5441 24.0828C21.5441 24.8119 21.2795 25.5131 20.8022 26.0612L20.6667 26.2068L19.9396 26.9349C19.3878 27.4893 19.3557 28.3649 19.8434 28.959L19.9478 29.0739L20.6671 29.7941C21.1815 30.3097 21.4897 30.995 21.5376 31.7178L21.5441 31.9158L21.5441 32.9448C21.5441 33.7328 22.1478 34.3801 22.9176 34.4496L23.0551 34.4558L24.0841 34.4558C24.8119 34.4558 25.5137 34.7207 26.0619 35.198L26.2074 35.3335L26.9308 36.0568C27.489 36.6118 28.3649 36.6442 28.9584 36.1565L29.0731 36.0521L29.7941 35.3322C30.3108 34.8179 30.9951 34.51 31.7181 34.4623L31.9161 34.4558L32.9441 34.4558C33.7328 34.4558 34.3804 33.8523 34.45 33.0823L34.4561 32.9448L34.4561 31.9158C34.4561 31.1869 34.7209 30.4839 35.1975 29.9382L35.3328 29.7935L36.0603 29.0659C36.6121 28.511 36.644 27.6357 36.1571 27.042L36.0527 26.9271L35.3309 26.2052C34.817 25.6876 34.5101 25.0043 34.4626 24.2809L34.4561 24.0828L34.4561 23.0558C34.4561 22.2673 33.8521 21.6195 33.0817 21.5499L32.9441 21.5438L31.9161 21.5438C31.1869 21.5438 30.4849 21.2794 29.938 20.8024L29.7927 20.6671L29.1049 19.9773L29.0649 19.9403C28.5107 19.3885 27.6349 19.3562 27.0415 19.8425ZM31.0966 30.0424C31.1665 30.1124 31.2266 30.1924 31.2665 30.2823C31.2965 30.3724 31.3165 30.4724 31.3165 30.5724C31.3165 30.6733 31.2965 30.7623 31.2665 30.8524C31.2266 30.9424 31.1665 31.0323 31.0966 31.1024C30.9565 31.2424 30.7665 31.3224 30.5665 31.3224C30.3665 31.3224 30.1765 31.2424 30.0365 31.1024C29.9666 31.0323 29.9165 30.9424 29.8765 30.8524C29.8365 30.7623 29.8165 30.6733 29.8165 30.5724C29.8165 30.4724 29.8365 30.3724 29.8765 30.2823C29.9165 30.1924 29.9666 30.1124 30.0365 30.0424C30.3165 29.7623 30.8165 29.7623 31.0966 30.0424ZM31.1001 24.8992C31.3665 25.1654 31.3906 25.582 31.1727 25.8757L31.1001 25.9598L25.9601 31.0999C25.6672 31.3927 25.1924 31.3927 24.8994 31.0999C24.6332 30.8335 24.609 30.4169 24.8269 30.1233L24.8994 30.0392L30.0394 24.8992C30.3324 24.6062 30.8073 24.6062 31.1001 24.8992ZM25.9564 24.9028C26.0964 25.0417 26.1764 25.2328 26.1764 25.4327C26.1764 25.5328 26.1664 25.6218 26.1265 25.7128C26.0864 25.8027 26.0264 25.8828 25.9564 25.9628C25.8864 26.0328 25.8064 26.0818 25.7164 26.1218C25.6265 26.1617 25.5264 26.1827 25.4264 26.1827C25.3264 26.1827 25.2365 26.1617 25.1464 26.1218C25.0564 26.0818 24.9664 26.0328 24.8964 25.9628C24.8264 25.8828 24.7764 25.8027 24.7365 25.7128C24.6964 25.6218 24.6764 25.5328 24.6764 25.4327C24.6764 25.3318 24.6964 25.2328 24.7365 25.1428C24.7764 25.0527 24.8264 24.9628 24.8964 24.9028C25.1864 24.6218 25.6764 24.6218 25.9564 24.9028Z" fill="#EA7C69" fill-opacity="1.000000" fill-rule="nonzero"/>
	</g>
</svg>
