<svg width="56.000000" height="56.000000" viewBox="0 0 56 56" fill="none" xmlns="http://www.w3.org/2000/svg" xmlns:xlink="http://www.w3.org/1999/xlink">
	<desc>
			Created with Pixso.
	</desc>
	<defs>
		<clipPath id="clip52_3809">
			<rect id="Icon / Line / Notification" width="24.000000" height="24.000000" transform="translate(16.000000 16.000000)" fill="white" fill-opacity="0"/>
		</clipPath>
	</defs>
	<rect id="Frame 65" rx="8.000000" width="56.000000" height="56.000000" fill="#1F1D2B" fill-opacity="1.000000"/>
	<rect id="Icon / Line / Notification" width="24.000000" height="24.000000" transform="translate(16.000000 16.000000)" fill="#000000" fill-opacity="0"/>
	<g clip-path="url(#clip52_3809)">
		<path id="Vector" d="M30.6079 35.6907C30.9045 35.9321 30.9515 36.3713 30.7129 36.6716C30.5365 36.8936 30.3328 37.0923 30.1167 37.2551C29.389 37.8259 28.464 38.085 27.5453 37.9753C26.6257 37.866 25.787 37.3962 25.2146 36.6689C24.9774 36.3677 25.0265 35.9287 25.3242 35.6885C25.6219 35.4485 26.0555 35.498 26.2927 35.7996C26.6379 36.238 27.1467 36.5229 27.7064 36.5896C28.267 36.6565 28.8307 36.4985 29.2826 36.1443C29.4158 36.0437 29.5355 35.927 29.6389 35.7969C29.8776 35.4966 30.3114 35.449 30.6079 35.6907ZM21.1521 24.9998L21.1644 24.4038C21.1732 24.1492 21.1869 23.9126 21.2068 23.6809C21.5066 20.4446 24.5957 18 27.9648 18L28.0361 18C31.4034 18 34.4934 20.4429 34.8033 23.6853C34.8212 23.8916 34.8287 24.0745 34.8311 24.332L34.832 25.1199C34.8328 25.1917 34.834 25.2546 34.8358 25.3135L34.845 25.5098L34.8896 25.6968C35.0303 26.218 35.2776 26.7053 35.6162 27.1282L35.767 27.3054L35.8286 27.3848C36.2349 27.9917 36.4668 28.698 36.5 29.4587L36.499 29.8621C36.4707 30.7629 36.1399 31.6331 35.5338 32.3582C34.7311 33.21 33.6433 33.7393 32.4873 33.8457C29.502 34.1699 26.49 34.1699 23.5129 33.8467C22.349 33.7346 21.2644 33.207 20.4266 32.3223C19.8088 31.5691 19.4805 30.6208 19.5009 29.6624L19.5017 29.4241C19.5375 28.6956 19.7681 27.9897 20.1693 27.3801L20.2366 27.2937C20.7052 26.78 21.0256 26.1511 21.1647 25.4731L21.1497 25.5339L21.1521 24.9998ZM28.0361 19.3953L27.9648 19.3953C25.2665 19.3953 22.808 21.3408 22.5797 23.8069C22.568 23.9424 22.5587 24.082 22.5514 24.2292L22.5353 24.6956L22.5288 25.6147L22.5144 25.7566C22.3245 26.6831 21.8873 27.541 21.2493 28.2405L21.2986 28.1833L21.2104 28.3291C21.0454 28.6265 20.9388 28.9495 20.8969 29.2683L20.8794 29.4587L20.8792 29.6775C20.8657 30.3142 21.0808 30.9355 21.4537 31.3931C22.0288 31.9985 22.8069 32.377 23.6517 32.4583C26.5393 32.772 29.4528 32.772 32.3513 32.4573C33.1871 32.3801 33.9646 32.002 34.5084 31.4268C34.9199 30.9331 35.1375 30.3096 35.1216 29.6536L35.1223 29.4902C35.1012 29.0186 34.951 28.5613 34.6874 28.1672L34.7026 28.1926L34.5647 28.0308C34.0894 27.4441 33.744 26.7634 33.5518 26.0339L33.4868 25.7583L33.4739 25.6655C33.4642 25.53 33.4585 25.4099 33.4556 25.2651L33.4528 24.3606C33.4509 24.1304 33.4447 23.9756 33.4308 23.8132C33.1943 21.3408 30.7336 19.3953 28.0361 19.3953Z" fill="#EA7C69" fill-opacity="1.000000" fill-rule="nonzero"/>
	</g>
</svg>
