<svg width="56.000000" height="56.000000" viewBox="0 0 56 56" fill="none" xmlns="http://www.w3.org/2000/svg" xmlns:xlink="http://www.w3.org/1999/xlink">
	<desc>
			Created with Pixso.
	</desc>
	<defs>
		<clipPath id="clip52_3760">
			<rect id="Icon / Line / Log Out" width="24.000000" height="24.000000" transform="translate(16.000000 16.000000)" fill="white" fill-opacity="0"/>
		</clipPath>
	</defs>
	<rect id="Sidebar" rx="10.000000" width="56.000000" height="56.000000" fill="#1F1D2B" fill-opacity="1.000000"/>
	<rect id="Icon / Line / Log Out" width="24.000000" height="24.000000" transform="translate(16.000000 16.000000)" fill="#000000" fill-opacity="0"/>
	<g clip-path="url(#clip52_3760)">
		<path id="Vector" d="M27.3309 18.0215C29.7102 18.0215 31.6521 19.8955 31.7611 22.2478L31.766 22.4565L31.766 23.3894C31.766 23.8037 31.4302 24.1394 31.016 24.1394C30.6362 24.1394 30.3225 23.8574 30.2728 23.4912L30.266 23.3894L30.266 22.4565C30.266 20.8936 29.0439 19.6157 27.5034 19.5264L27.3309 19.5215L22.4559 19.5215C20.8939 19.5215 19.6162 20.7437 19.527 22.2842L19.522 22.4565L19.522 33.5864C19.522 35.1492 20.7439 36.4272 22.2836 36.5166L22.4559 36.5215L27.3409 36.5215C28.8983 36.5215 30.172 35.304 30.261 33.7693L30.266 33.5974L30.266 32.6545C30.266 32.2402 30.6018 31.9045 31.016 31.9045C31.3956 31.9045 31.7095 32.1865 31.7592 32.5527L31.766 32.6545L31.766 33.5974C31.766 35.9688 29.8992 37.9045 27.5553 38.0164L27.3409 38.0215L22.4559 38.0215C20.0775 38.0215 18.1359 36.1475 18.0269 33.7952L18.022 33.5864L18.022 22.4565C18.022 20.0774 19.8958 18.1353 22.2473 18.0264L22.4559 18.0215L27.3309 18.0215ZM35.326 24.5024L35.4103 24.5747L38.3384 27.4897C38.3647 27.5159 38.3878 27.5425 38.4091 27.5708L38.3384 27.4897C38.3689 27.5203 38.3962 27.5525 38.4204 27.5864C38.4375 27.6104 38.4534 27.6355 38.4677 27.6614C38.4702 27.6665 38.4729 27.6714 38.4755 27.6765C38.488 27.7004 38.4993 27.7253 38.5092 27.7507C38.5132 27.762 38.5173 27.7734 38.5211 27.7847C38.5283 27.8057 38.5345 27.8274 38.5397 27.8494C38.5421 27.8611 38.5446 27.8728 38.5466 27.8845C38.5508 27.905 38.5538 27.926 38.5559 27.9475C38.557 27.9624 38.558 27.9771 38.5586 27.9917C38.5593 28.0017 38.5594 28.0115 38.5594 28.0215L38.5586 28.0498C38.5581 28.0652 38.557 28.0806 38.5555 28.0957L38.5594 28.0215C38.5594 28.0681 38.5552 28.114 38.547 28.1584C38.5446 28.1697 38.5421 28.1814 38.5393 28.1931C38.5343 28.2163 38.5278 28.2388 38.5205 28.2607C38.5167 28.271 38.5129 28.2812 38.509 28.2915C38.4998 28.3164 38.4889 28.3406 38.4769 28.3638C38.4739 28.3691 38.4707 28.375 38.4675 28.3809C38.4331 28.4443 38.39 28.5015 38.3398 28.5518L38.3384 28.5527L35.4104 31.4688C35.1169 31.761 34.6421 31.76 34.3497 31.4666C34.084 31.1997 34.0607 30.783 34.2792 30.4897L34.3519 30.4058L35.991 28.7705L25.7684 28.7715C25.3542 28.7715 25.0184 28.4355 25.0184 28.0215C25.0184 27.6416 25.3007 27.3279 25.6667 27.2783L25.7684 27.2715L35.9929 27.2705L34.3521 25.6377C34.0852 25.3721 34.0601 24.9556 34.2772 24.6614L34.3496 24.5771C34.6154 24.3103 35.032 24.2852 35.326 24.5024Z" fill="#EA7C69" fill-opacity="1.000000" fill-rule="nonzero"/>
	</g>
</svg>
