<svg width="56.000000" height="56.000000" viewBox="0 0 56 56" fill="none" xmlns="http://www.w3.org/2000/svg" xmlns:xlink="http://www.w3.org/1999/xlink">
	<desc>
			Created with Pixso.
	</desc>
	<defs>
		<clipPath id="clip52_3789">
			<rect id="Icon / Line / Dashboard" width="24.000000" height="24.000000" transform="translate(16.000000 16.000000)" fill="white" fill-opacity="0"/>
		</clipPath>
	</defs>
	<rect id="Frame 65" rx="8.000000" width="56.000000" height="56.000000" fill="#1F1D2B" fill-opacity="1.000000"/>
	<rect id="Icon / Line / Dashboard" width="24.000000" height="24.000000" transform="translate(16.000000 16.000000)" fill="#000000" fill-opacity="0"/>
	<g clip-path="url(#clip52_3789)">
		<path id="Vector" d="M26.4978 22.7606C26.5854 22.9348 26.6382 23.1239 26.6533 23.321L27.0419 28.8096C27.0471 28.8848 27.0826 28.9548 27.1409 29.0043C27.1844 29.0413 27.238 29.0645 27.298 29.0712L27.3599 29.0724L32.9341 28.7366C33.3867 28.71 33.8306 28.8676 34.1604 29.1719C34.4902 29.4763 34.6769 29.9004 34.6744 30.3911C34.4265 34.0037 31.7731 37.0237 28.1591 37.8065C24.545 38.5892 20.8361 36.9474 19.0579 33.7848C18.5823 32.9695 18.2617 32.0778 18.1138 31.1749L18.0664 30.8359C18.0253 30.582 18.0032 30.3257 18 30.0795L18.0032 29.8372C18.0134 26.0654 20.6616 22.8041 24.3881 21.9243L24.6438 21.868L24.7814 21.8453C25.502 21.7468 26.2109 22.1245 26.4978 22.7606ZM25.0165 23.2781L24.9321 23.2877L24.7037 23.3394C21.7352 24.0548 19.6062 26.6104 19.4879 29.621L19.4828 29.8661C19.4757 30.0525 19.4825 30.2391 19.505 30.4377L19.5327 30.6407C19.6321 31.495 19.908 32.3206 20.3491 33.0773C21.8163 35.6863 24.8667 37.0367 27.839 36.3928C30.8113 35.749 32.9937 33.2653 33.1958 30.3414C33.1958 30.2974 33.1774 30.2552 33.1447 30.225C33.1228 30.2048 33.0959 30.1912 33.0675 30.1851L33.0239 30.1818L27.459 30.517C26.9894 30.5503 26.5255 30.3993 26.17 30.0972C25.8146 29.795 25.5968 29.3668 25.5652 28.91L25.177 23.4261C25.1763 23.4171 25.1738 23.4082 25.1569 23.373C25.1315 23.3169 25.0765 23.2812 25.0165 23.2781ZM29.423 18.0011C33.7085 18.1223 37.3029 21.2017 37.9905 25.3408L38 25.4567L37.9978 25.6586C37.9736 25.9562 37.8538 26.2393 37.6544 26.4668C37.4042 26.7524 37.0477 26.9286 36.6588 26.9568L30.0133 27.39C29.1615 27.4382 28.4294 26.8051 28.3741 25.9735L27.9298 19.4491L27.9349 19.303L27.957 19.1382C28.0162 18.8462 28.1685 18.5793 28.3925 18.3765C28.674 18.1216 29.0474 17.9866 29.423 18.0011ZM29.4113 19.449L29.8511 25.8782C29.8536 25.9172 29.8881 25.9469 29.9214 25.9451L36.5182 25.5135L36.4855 25.3335C35.8318 22.0802 33.012 19.6644 29.6288 19.4594L29.4113 19.449Z" fill="#EA7C69" fill-opacity="1.000000" fill-rule="nonzero"/>
	</g>
</svg>
