<svg width="56.000000" height="56.000000" viewBox="0 0 56 56" fill="none" xmlns="http://www.w3.org/2000/svg" xmlns:xlink="http://www.w3.org/1999/xlink">
	<desc>
			Created with Pixso.
	</desc>
	<defs>
		<clipPath id="clip52_3819">
			<rect id="Icon / Line / Setting" width="24.000000" height="24.000000" transform="translate(16.000000 16.000000)" fill="white" fill-opacity="0"/>
		</clipPath>
	</defs>
	<rect id="Frame 65" rx="8.000000" width="56.000000" height="56.000000" fill="#1F1D2B" fill-opacity="1.000000"/>
	<rect id="Icon / Line / Setting" width="24.000000" height="24.000000" transform="translate(16.000000 16.000000)" fill="#000000" fill-opacity="0"/>
	<g clip-path="url(#clip52_3819)">
		<path id="Vector" d="M28.6161 18C29.3251 17.9998 30.004 18.2805 30.4983 18.7788C30.9924 19.2769 31.2599 19.9497 31.2384 20.5776L31.2468 20.7253C31.264 20.8708 31.3124 21.0112 31.3907 21.1406C31.5435 21.3958 31.7935 21.5808 32.0857 21.655C32.3778 21.7295 32.6882 21.6868 32.9822 21.5183L33.146 21.4355C34.376 20.8689 35.8511 21.3191 36.5333 22.4792L37.1465 23.5217C37.1627 23.5493 37.1769 23.5776 37.1892 23.6067L37.2461 23.7185C37.7946 24.8652 37.4043 26.2292 36.3624 26.9224L36.1051 27.0806C35.9706 27.1726 35.8585 27.2925 35.7742 27.4368C35.6218 27.6929 35.5801 27.998 35.658 28.2844C35.736 28.5708 35.9272 28.8149 36.2174 28.9792L36.3844 29.084C36.8887 29.4297 37.2529 29.9392 37.4119 30.5229C37.5912 31.1816 37.495 31.8833 37.1399 32.4805L36.4802 33.5571L36.3809 33.709C35.6058 34.8008 34.1011 35.1343 32.9528 34.4849L32.8167 34.4163C32.6747 34.354 32.5215 34.3198 32.382 34.3162C32.0786 34.3147 31.7872 34.4321 31.5728 34.6423C31.3582 34.8523 31.2383 35.1379 31.2391 35.4697L31.231 35.6414C31.12 36.9702 29.9845 38 28.6165 38L27.3811 38C25.9323 38 24.7577 36.8494 24.7592 35.4753L24.7506 35.3276C24.7334 35.1821 24.6851 35.0417 24.6027 34.9058C24.4534 34.6499 24.2059 34.4631 23.9154 34.387C23.6249 34.3108 23.3153 34.3516 23.0156 34.5212L22.8376 34.6084C22.2747 34.8564 21.6395 34.9023 21.0444 34.7366C20.373 34.5496 19.8054 34.1084 19.4741 33.5225L18.8368 32.4441L18.752 32.2844C18.1716 31.0842 18.6265 29.6411 19.7811 28.9875L19.8865 28.9229C20.1949 28.7136 20.3799 28.3689 20.3799 28C20.3799 27.5989 20.1615 27.2283 19.7795 27.0115L19.6245 26.9141C18.51 26.1548 18.1694 24.6804 18.8599 23.5068L19.5092 22.4617C20.2313 21.2336 21.8315 20.8101 23.0624 21.5017L23.1956 21.5713C23.3314 21.6323 23.479 21.6648 23.621 21.6663C24.2474 21.6663 24.7578 21.1736 24.7672 20.5417L24.7758 20.3479C24.827 19.7471 25.093 19.1826 25.528 18.7546C26.0186 18.2715 26.6855 18 27.3811 18L28.6161 18ZM28.6165 19.4478L27.3811 19.4478C27.0786 19.4478 26.7887 19.5659 26.5753 19.7759C26.3862 19.9619 26.2706 20.2075 26.2502 20.4365L26.2368 20.7415C26.1334 22.0708 24.9996 23.1143 23.6133 23.114C23.2559 23.1104 22.9036 23.033 22.5443 22.8704L22.3519 22.7708C21.8038 22.4631 21.1049 22.6482 20.7805 23.1992L20.1312 24.2446C19.8337 24.7505 19.9825 25.3948 20.4432 25.7092L20.704 25.8711C21.422 26.3467 21.8575 27.1431 21.8575 28C21.8575 28.8445 21.4341 29.634 20.7021 30.1296L20.5464 30.2256C20.0336 30.5164 19.8356 31.144 20.074 31.6384L20.1302 31.7449L20.7595 32.8083C20.9072 33.0696 21.1552 33.2625 21.4484 33.344C21.7083 33.4165 21.9857 33.3965 22.202 33.3018L22.3108 33.2498C22.911 32.9065 23.6261 32.8125 24.2974 32.9885C24.9686 33.1646 25.5403 33.5959 25.8794 34.1768C26.0618 34.478 26.1772 34.8132 26.2219 35.1985L26.2421 35.552C26.3042 36.1145 26.7905 36.5522 27.3811 36.5522L28.6165 36.5522C29.2137 36.5522 29.7098 36.1023 29.7565 35.551L29.7621 35.4421C29.7588 34.7585 30.0344 34.1018 30.5278 33.6184C31.0212 33.135 31.6914 32.865 32.4053 32.8687C32.7556 32.8777 33.1003 32.9546 33.4528 33.1101L33.7688 33.2681C34.2646 33.4814 34.8529 33.3259 35.1511 32.9067L35.2236 32.7957L35.8679 31.7437C36.0203 31.4875 36.062 31.1824 35.9841 30.896C35.915 30.6421 35.7566 30.4207 35.5646 30.2881L35.2922 30.1196C34.7716 29.7747 34.3932 29.2563 34.2302 28.6575C34.0509 27.9988 34.1471 27.2971 34.4946 26.7126C34.6849 26.3872 34.9464 26.1074 35.2874 25.8752L35.448 25.7761C35.9601 25.4827 36.1578 24.855 35.9211 24.3589L35.8505 24.2253L35.8378 24.1973L35.2531 23.2021C34.9764 22.7317 34.4009 22.5286 33.9125 22.6892L33.8015 22.7327L33.6984 22.7842C33.1001 23.1294 32.3864 23.2273 31.7144 23.0564C31.0424 22.8855 30.4673 22.4597 30.118 21.8762C29.9357 21.575 29.8202 21.2397 29.7755 20.8545L29.7625 20.6025C29.7714 20.2993 29.6545 20.0054 29.4387 19.7878C29.2229 19.5703 28.9264 19.4478 28.6165 19.4478ZM28.0033 24.7319C29.8456 24.7319 31.339 26.1951 31.339 28C31.339 29.8049 29.8456 31.2681 28.0033 31.2681C26.161 31.2681 24.6675 29.8049 24.6675 28C24.6675 26.1951 26.161 24.7319 28.0033 24.7319ZM28.0033 26.1794C26.9771 26.1794 26.1451 26.9946 26.1451 28C26.1451 29.0054 26.9771 29.8206 28.0033 29.8206C29.0294 29.8206 29.8613 29.0054 29.8613 28C29.8613 26.9946 29.0294 26.1794 28.0033 26.1794Z" fill="#EA7C69" fill-opacity="1.000000" fill-rule="nonzero"/>
	</g>
</svg>
